<?xml version="1.0" encoding="UTF-8"?>
<svg xmlns="http://www.w3.org/2000/svg" xmlns:xlink="http://www.w3.org/1999/xlink" version="1.1" id="Ebene_1" x="0px" y="0px" viewBox="0 0 283.465 76.535" style="enable-background:new 0 0 283.465 76.535;" xml:space="preserve">
<path style="fill-rule:evenodd;clip-rule:evenodd;fill:#020204;" d="M165.944,56.826c0.916,1.549,1.949,3.021,3.092,4.398  c6.82,8.218,17.396,13.224,29.033,13.224c6.752,0,13.018-2.016,18.416-5.334c-2.471-2.107-4.717-4.528-6.67-7.245  c-3.75,1.987-8.064,3.357-12.543,3.357c-7.408,0-14.48-3.331-19.402-8.407l0,0c-0.688-0.711-1.332-1.451-1.93-2.224  c-3.621-4.679-5.283-10.582-5.283-17.024c0-9.198,4.143-17.486,10.906-22.451c4.359-3.203,9.965-4.935,15.732-4.935  c4.791,0,8.863,1.417,12.605,3.733c1.947-2.755,4.242-5.314,6.871-7.604c-5.496-3.145-11.887-4.946-18.703-4.946  c-8.75,0-16.768,2.278-23.121,7.245c-8.562,6.694-14.074,17.71-14.074,29.295c0,6.837,1.797,13.38,5.07,18.911"/>
<polygon style="fill-rule:evenodd;clip-rule:evenodd;fill:#020204;" points="52.345,73.59 97.427,73.59 97.427,65.345   60.957,65.345 60.957,38.406 97.794,38.406 97.794,30.525 61.142,30.525 61.142,10.326 97.794,10.326 97.794,1.937 52.345,1.937 "/>
<polygon style="fill-rule:evenodd;clip-rule:evenodd;fill:#020204;" points="18.625,33.824 45.381,2.012 35.039,2.012 8.282,32.983   8.282,2.012 0,2.012 0,73.666 8.362,73.666 8.362,36.389 23.931,56.819 36.769,73.666 47.763,73.666 35.443,56.819 "/>
<path style="fill-rule:evenodd;clip-rule:evenodd;fill:#020204;" d="M278.495,18.301c-10.377-17.759-33.883-23.514-52.25-13.178  c-18.432,10.372-24.848,33.372-14.471,51.13c0.111,0.19,0.221,0.379,0.336,0.566c10.549,17.314,34.029,22.779,51.906,12.824  c5.752-3.206,10.334-7.668,13.602-12.832C284.843,45.388,285.642,30.533,278.495,18.301z M269.255,51.98  c-1.027,1.778-2.207,3.395-3.51,4.839c-8.893,9.882-23.561,11.975-35.066,5.331c-2.524-1.457-4.723-3.261-6.576-5.327  c-7.836-8.737-9.482-22.134-3.238-33.534c7.625-13.922,25.256-18.349,38.566-10.934C273.052,19.944,277.29,38.064,269.255,51.98z"/>
<path style="fill-rule:evenodd;clip-rule:evenodd;fill:#020204;" d="M155.372,56.858c-1.592,7.481-7.029,13.498-14.079,15.899  c-3.773,1.283-7.814,1.979-12.016,1.979c-3.953,0-7.754-0.709-11.306-1.853c-7.225-2.326-12.78-8.43-14.386-16.016v-0.01  c-0.31-1.452-0.473-2.969-0.473-4.523V2.073l9.154-0.005v49.353c0,1.927,0.385,3.768,1.079,5.438h0.001  c1.569,3.783,4.723,6.725,8.621,7.979c2.318,0.743,4.8,1.207,7.381,1.207c2.742,0,5.379-0.454,7.843-1.291  c3.788-1.289,6.866-4.184,8.413-7.89v0.047c0.701-1.672,1.09-3.516,1.09-5.453V2.04l9.154,0.004v50.317  c0,1.56-0.164,3.083-0.477,4.549V56.858z"/>
</svg>